<svg width="23" height="18" viewBox="0 0 23 18" fill="none" xmlns="http://www.w3.org/2000/svg">
<path d="M11.508 2.58899C5.86301 2.58899 0.832008 8.45699 0.620008 8.70699C0.549952 8.78971 0.511505 8.89459 0.511505 9.00299C0.511505 9.11139 0.549952 9.21628 0.620008 9.299C1.98105 10.8361 3.54233 12.1835 5.26201 13.305L8.13401 10.433C7.85078 9.76157 7.7742 9.02094 7.91405 8.30577C8.0539 7.5906 8.40382 6.93337 8.9191 6.41809C9.43438 5.90281 10.0916 5.55288 10.8068 5.41303C11.522 5.27318 12.2626 5.34977 12.934 5.633L15.295 3.272C14.0816 2.82738 12.8003 2.59629 11.508 2.58899Z" fill="#B4C7DE"/>
<path d="M22.419 8.742C20.9939 6.82302 19.1758 5.23023 17.086 4.07001L19.618 1.538C19.7039 1.45207 19.7522 1.33553 19.7522 1.214C19.7522 1.09248 19.7039 0.975937 19.618 0.890007C19.5321 0.804077 19.4155 0.755798 19.294 0.755798C19.1725 0.755798 19.0559 0.804077 18.97 0.890007L3.392 16.468C3.30626 16.554 3.25812 16.6705 3.25812 16.792C3.25812 16.9135 3.30626 17.03 3.392 17.116C3.43422 17.1588 3.48452 17.1927 3.53996 17.2159C3.59541 17.2391 3.6549 17.251 3.715 17.251C3.83645 17.2509 3.95292 17.2027 4.03899 17.117L6.91199 14.244C8.33384 14.9785 9.90411 15.3799 11.504 15.418C17.149 15.418 22.18 9.55 22.392 9.3C22.4571 9.22285 22.495 9.12641 22.4999 9.02557C22.5048 8.92473 22.4764 8.82509 22.419 8.742ZM11.504 12.668C10.6922 12.6645 9.90503 12.3892 9.268 11.886L14.387 6.76701C14.8114 7.30591 15.0751 7.95363 15.1478 8.6357C15.2205 9.31778 15.0992 10.0065 14.798 10.6228C14.4968 11.239 14.0278 11.7578 13.4449 12.1194C12.862 12.481 12.1889 12.6708 11.503 12.667L11.504 12.668Z" fill="#B4C7DE"/>
</svg>
