<svg width="320" height="231" viewBox="0 0 320 231" fill="none" xmlns="http://www.w3.org/2000/svg">
<path d="M277.742 139.396C280.874 139.669 283.943 140.435 286.836 141.667C289.57 142.865 292.176 144.338 294.612 146.062C292.306 147.149 290.078 148.395 287.944 149.79C286.861 150.444 285.796 151.152 284.746 151.742C284.218 152.041 283.701 152.352 283.181 152.616C282.66 152.88 282.144 153.116 281.627 153.353C281.11 153.59 280.58 153.782 280.04 153.961C279.501 154.141 278.952 154.339 278.394 154.492C278.115 154.571 277.834 154.644 277.553 154.711C277.271 154.778 276.987 154.864 276.702 154.933C276.133 155.077 275.553 155.179 274.975 155.297C272.682 155.745 270.361 156.034 268.029 156.163C265.428 156.311 262.82 156.284 260.223 156.082C259.038 156.002 257.914 155.934 256.822 155.848C255.745 155.795 254.716 155.756 253.727 155.756C254.292 154.746 254.987 153.5 255.62 152.479L256.965 150.363C259.1 146.958 262.021 144.114 265.482 142.071C269.207 139.968 273.479 139.035 277.742 139.396Z" fill="#E32940"/>
<path d="M266.137 109.068C271.353 104.331 277.853 101.283 284.248 98.3039C284.239 104.294 284.22 110.37 282.615 116.11C281.011 121.851 276.947 127.439 272.56 131.43C268.153 135.575 263.216 139.117 257.878 141.965C257.72 139.042 257.516 134.982 257.473 134.235C256.888 124.296 258.573 115.934 266.137 109.068Z" fill="#E32940"/>
<path d="M198.244 218.88C198.506 218.492 198.807 218.132 199.143 217.807C199.76 217.132 200.682 216.149 201.878 214.892C203.095 213.657 204.487 212.053 206.133 210.22C206.951 209.3 207.845 208.333 208.76 207.278C209.675 206.222 210.619 205.085 211.627 203.909C215.668 199.207 220.271 193.427 225.303 186.954L229.106 181.933C230.414 180.231 231.706 178.46 233.026 176.661C233.686 175.762 234.352 174.855 235.025 173.941C235.698 173.027 236.378 172.107 237.041 171.165L241.116 165.46C242.49 163.535 243.808 161.601 245.129 159.712L247.09 156.896L248.986 154.101C250.237 152.253 251.466 150.44 252.672 148.662C253.855 146.871 255.013 145.12 256.146 143.407C257.287 141.702 258.367 140.02 259.419 138.387L262.482 133.635C263.453 132.09 264.389 130.601 265.292 129.166L266.618 127.061L267.863 125.031C269.48 122.379 270.968 120.003 272.21 117.875L273.974 114.922L274.752 113.623L275.438 112.434C276.303 110.936 276.991 109.77 277.464 108.988C277.68 108.573 277.939 108.182 278.237 107.821C278.09 108.264 277.896 108.691 277.659 109.094C277.251 109.914 276.626 111.108 275.813 112.644L275.168 113.859L274.431 115.185L272.748 118.185C271.554 120.346 270.108 122.755 268.536 125.435L267.319 127.486C266.895 128.18 266.462 128.889 266.02 129.613L263.261 134.121L260.24 138.91C259.202 140.555 258.132 142.249 257.002 143.963L253.553 149.245C252.355 151.03 251.132 152.851 249.885 154.709C249.261 155.635 248.63 156.57 247.994 157.512C247.347 158.446 246.694 159.388 246.036 160.337C244.717 162.229 243.398 164.167 242.018 166.098C240.638 168.029 239.276 169.931 237.932 171.809C237.268 172.75 236.582 173.672 235.905 174.585L233.895 177.306C232.567 179.104 231.265 180.871 229.945 182.571C228.625 184.27 227.356 185.948 226.104 187.58C221.017 194.031 216.342 199.773 212.215 204.423C211.188 205.588 210.21 206.697 209.282 207.748C208.345 208.788 207.426 209.737 206.586 210.639C204.891 212.436 203.451 214 202.183 215.192C200.937 216.405 199.965 217.341 199.298 217.967C198.98 218.307 198.627 218.613 198.244 218.88Z" fill="white"/>
<path d="M271.075 147.995C271.113 148.166 269.23 148.66 266.289 149.708L265.138 150.126C264.738 150.271 264.331 150.448 263.905 150.614C263.047 150.939 262.158 151.349 261.213 151.76C259.345 152.626 257.328 153.653 255.283 154.863C253.247 156.087 251.383 157.372 249.734 158.604C248.923 159.238 248.141 159.826 247.447 160.426C247.097 160.722 246.75 160.995 246.43 161.278C246.11 161.562 245.807 161.833 245.515 162.093C243.196 164.183 241.865 165.604 241.733 165.489C241.675 165.439 241.946 165.031 242.488 164.33C242.625 164.156 242.778 163.963 242.944 163.751C243.116 163.545 243.314 163.328 243.521 163.093C243.942 162.627 244.41 162.082 244.978 161.53C245.259 161.25 245.55 160.962 245.858 160.651C246.165 160.341 246.506 160.052 246.849 159.737C247.528 159.098 248.303 158.471 249.112 157.803C252.674 154.957 256.608 152.611 260.805 150.832C261.778 150.438 262.697 150.054 263.583 149.761C264.024 149.609 264.445 149.451 264.858 149.324C265.272 149.197 265.668 149.078 266.049 148.967C266.805 148.73 267.507 148.576 268.117 148.428C268.423 148.357 268.707 148.287 268.97 148.234L269.697 148.108C270.57 147.964 271.059 147.92 271.075 147.995Z" fill="white"/>
<path d="M239.741 128.684C240.091 126.058 240.677 123.461 241.307 120.783C241.903 118.118 242.536 115.375 242.989 112.538C245.066 114.165 247.043 115.917 248.91 117.782C249.884 118.78 250.782 119.849 251.596 120.982C251.996 121.545 252.367 122.128 252.706 122.73C253.053 123.319 253.359 123.931 253.622 124.561C254.697 127.216 255.279 130.045 255.339 132.91C255.411 135.77 255.069 138.626 254.322 141.388C253.511 144.264 252.236 146.989 250.546 149.453C249.82 150.528 249.05 151.483 248.348 152.37C247.605 153.248 246.9 154.053 246.267 154.824C245.853 153.686 245.38 152.364 244.931 151.266C244.481 150.167 244.098 149.294 243.979 149.025C242.402 145.801 241.133 142.434 240.188 138.971C239.366 135.605 239.214 132.109 239.741 128.684Z" fill="#E32940"/>
<path d="M248.953 135.271C249.029 135.268 249.113 135.75 249.2 136.632L249.263 137.369C249.281 137.637 249.286 137.928 249.297 138.244C249.311 138.871 249.346 139.587 249.312 140.379L249.276 141.622C249.261 142.054 249.216 142.502 249.184 142.967C249.127 143.895 248.994 144.882 248.867 145.927C248.236 150.443 246.989 154.85 245.16 159.027C244.725 159.982 244.324 160.89 243.879 161.714C243.662 162.126 243.466 162.532 243.253 162.909L242.631 163.986C242.245 164.677 241.841 165.27 241.501 165.796C241.325 166.058 241.17 166.304 241.014 166.523C240.858 166.742 240.703 166.938 240.574 167.115C240.038 167.819 239.712 168.186 239.649 168.144C239.504 168.046 240.532 166.393 241.951 163.612L242.498 162.519C242.688 162.139 242.864 161.732 243.058 161.317C243.457 160.492 243.827 159.587 244.225 158.635C245.912 154.497 247.133 150.184 247.865 145.776C248.018 144.758 248.183 143.793 248.276 142.881C248.327 142.426 248.391 141.986 248.429 141.563L248.535 140.344C248.79 137.222 248.778 135.279 248.953 135.271Z" fill="white"/>
<path d="M223.188 150.801C223.537 148.174 224.124 145.577 224.753 142.899C225.35 140.235 225.983 137.491 226.435 134.655C228.512 136.282 230.49 138.033 232.356 139.899C233.33 140.896 234.228 141.966 235.043 143.098C235.442 143.662 235.813 144.245 236.153 144.847C236.499 145.436 236.805 146.048 237.067 146.679C238.143 149.334 238.725 152.162 238.785 155.026C238.857 157.887 238.515 160.743 237.769 163.505C236.958 166.381 235.682 169.106 233.992 171.571C233.265 172.646 232.496 173.6 231.793 174.487C231.051 175.365 230.346 176.171 229.712 176.942C229.298 175.803 228.825 174.482 228.376 173.383C227.928 172.284 227.543 171.412 227.424 171.144C225.847 167.919 224.578 164.553 223.633 161.09C222.812 157.723 222.66 154.227 223.188 150.801Z" fill="#E32940"/>
<path d="M232.4 157.389C232.476 157.386 232.561 157.869 232.648 158.749L232.711 159.486C232.727 159.755 232.733 160.047 232.744 160.361C232.759 160.989 232.792 161.706 232.759 162.496L232.723 163.74C232.708 164.172 232.663 164.62 232.631 165.085C232.574 166.013 232.441 167 232.315 168.044C231.683 172.56 230.436 176.967 228.608 181.144C228.173 182.099 227.772 183.007 227.327 183.831C227.11 184.243 226.914 184.649 226.701 185.025C226.487 185.402 226.277 185.759 226.08 186.103C225.694 186.794 225.289 187.386 224.95 187.912C224.773 188.174 224.619 188.42 224.462 188.639C224.306 188.858 224.151 189.055 224.022 189.231C223.486 189.936 223.161 190.304 223.098 190.26C222.953 190.162 223.981 188.509 225.4 185.728L225.947 184.636C226.137 184.255 226.313 183.848 226.507 183.433C226.907 182.607 227.272 181.699 227.674 180.752C228.437 178.839 229.197 176.706 229.852 174.423C230.507 172.141 230.961 169.921 231.314 167.892C231.467 166.875 231.632 165.909 231.724 164.998C231.775 164.541 231.84 164.103 231.877 163.68L231.984 162.461C232.234 159.343 232.225 157.396 232.4 157.389Z" fill="white"/>
<path d="M205.987 171.607C206.337 168.98 206.922 166.383 207.551 163.706C208.148 161.04 208.782 158.298 209.234 155.461C211.311 157.088 213.288 158.839 215.155 160.704C216.129 161.702 217.027 162.772 217.841 163.905C218.241 164.468 218.612 165.051 218.951 165.652C219.298 166.241 219.603 166.853 219.866 167.484C220.941 170.139 221.523 172.968 221.583 175.832C221.656 178.693 221.313 181.549 220.567 184.311C219.755 187.187 218.479 189.911 216.79 192.376C216.063 193.45 215.294 194.406 214.59 195.292C213.847 196.171 213.143 196.976 212.509 197.747C212.095 196.609 211.622 195.287 211.174 194.189C210.726 193.091 210.341 192.218 210.222 191.948C208.645 188.723 207.376 185.357 206.432 181.893C205.61 178.527 205.459 175.032 205.987 171.607Z" fill="#E32940"/>
<path d="M215.197 178.193C215.273 178.19 215.356 178.672 215.444 179.554L215.507 180.29C215.525 180.559 215.53 180.851 215.54 181.165C215.555 181.793 215.592 182.515 215.556 183.301L215.521 184.544C215.505 184.976 215.461 185.424 215.429 185.889C215.371 186.818 215.242 187.808 215.113 188.85C214.481 193.365 213.234 197.773 211.405 201.949C210.97 202.904 210.569 203.812 210.124 204.635C209.91 205.052 209.714 205.456 209.498 205.829L208.877 206.907C208.491 207.599 208.086 208.19 207.746 208.716C207.57 208.979 207.415 209.225 207.259 209.444C207.104 209.664 206.948 209.86 206.819 210.036C206.283 210.741 205.959 211.108 205.897 211.065C205.751 210.966 206.779 209.314 208.198 206.533L208.744 205.44C208.935 205.061 209.111 204.652 209.305 204.238C209.703 203.412 210.07 202.503 210.472 201.556C211.235 199.644 211.994 197.511 212.65 195.228C213.305 192.945 213.759 190.726 214.111 188.697C214.264 187.678 214.429 186.713 214.522 185.801C214.573 185.346 214.638 184.906 214.675 184.483L214.782 183.264C215.031 180.147 215.022 178.2 215.197 178.193Z" fill="white"/>
<path d="M260.58 162.338C263.713 162.61 266.782 163.377 269.675 164.609C272.409 165.806 275.015 167.279 277.451 169.004C275.145 170.091 272.917 171.336 270.783 172.731C269.7 173.385 268.634 174.093 267.585 174.682C267.056 174.98 266.54 175.293 266.02 175.556C265.499 175.82 264.982 176.056 264.466 176.293C263.949 176.53 263.418 176.722 262.879 176.902C262.339 177.082 261.791 177.279 261.232 177.433C260.953 177.512 260.672 177.585 260.391 177.652C260.109 177.719 259.825 177.805 259.54 177.875C258.971 178.018 258.391 178.119 257.812 178.239C255.519 178.686 253.198 178.975 250.866 179.103C248.265 179.252 245.657 179.225 243.06 179.023C241.875 178.943 240.751 178.875 239.66 178.789C238.582 178.736 237.553 178.696 236.564 178.696C237.129 177.687 237.824 176.44 238.457 175.42L239.801 173.304C241.937 169.898 244.857 167.055 248.318 165.012C252.044 162.908 256.317 161.976 260.58 162.338Z" fill="#E32940"/>
<path d="M253.914 170.936C253.953 171.107 252.069 171.602 249.128 172.649C248.762 172.782 248.378 172.921 247.978 173.067C247.578 173.212 247.171 173.39 246.745 173.556C245.888 173.881 244.998 174.291 244.053 174.702C242.026 175.637 240.047 176.672 238.123 177.804C236.087 179.028 234.223 180.314 232.574 181.546C231.763 182.18 230.981 182.768 230.286 183.368C229.937 183.665 229.589 183.938 229.269 184.221C228.95 184.504 228.647 184.776 228.355 185.035C226.037 187.125 224.705 188.546 224.574 188.432C224.516 188.382 224.787 187.973 225.328 187.273C225.466 187.099 225.618 186.906 225.785 186.694C225.956 186.487 226.153 186.271 226.361 186.036C226.782 185.57 227.25 185.025 227.818 184.473C228.098 184.193 228.391 183.9 228.697 183.594C229.007 183.291 229.345 182.996 229.688 182.679C230.368 182.04 231.142 181.414 231.952 180.746C235.512 177.898 239.447 175.553 243.645 173.775C244.617 173.38 245.536 172.996 246.421 172.702C246.862 172.55 247.283 172.392 247.697 172.265L248.889 171.909C249.644 171.672 250.346 171.519 250.956 171.37C251.263 171.299 251.546 171.23 251.81 171.177L252.536 171.051C253.409 170.905 253.897 170.862 253.914 170.936Z" fill="white"/>
<path d="M244.837 182.359C247.969 182.631 251.039 183.398 253.931 184.63C256.666 185.828 259.271 187.301 261.707 189.026C259.402 190.113 257.174 191.358 255.04 192.753C253.957 193.407 252.891 194.115 251.842 194.705C251.314 195.003 250.797 195.315 250.277 195.579C249.756 195.842 249.24 196.078 248.723 196.315C248.206 196.552 247.675 196.745 247.135 196.925C246.596 197.105 246.048 197.301 245.489 197.456C245.211 197.533 244.931 197.606 244.647 197.675C244.363 197.743 244.08 197.818 243.796 197.898C243.227 198.041 242.647 198.142 242.068 198.262C239.775 198.709 237.455 198.998 235.122 199.127C232.521 199.276 229.914 199.249 227.316 199.047C226.131 198.967 225.008 198.899 223.916 198.813C222.839 198.759 221.81 198.72 220.82 198.721C221.385 197.711 222.081 196.465 222.712 195.443C223.344 194.422 223.892 193.587 224.057 193.327C226.193 189.922 229.114 187.079 232.575 185.036C236.3 182.931 240.573 181.998 244.837 182.359Z" fill="#E32940"/>
<path d="M238.172 190.958C238.211 191.129 236.327 191.623 233.386 192.67L232.234 193.088C231.835 193.233 231.428 193.41 231.001 193.577C230.144 193.902 229.254 194.312 228.311 194.723C226.442 195.589 224.425 196.617 222.38 197.825C220.344 199.05 218.48 200.335 216.831 201.567C216.02 202.201 215.237 202.79 214.544 203.389C214.193 203.685 213.846 203.958 213.527 204.241C213.209 204.525 212.904 204.797 212.613 205.055C210.294 207.146 208.964 208.565 208.831 208.452C208.774 208.402 209.045 207.994 209.586 207.294C209.723 207.12 209.876 206.927 210.042 206.715C210.215 206.508 210.411 206.292 210.619 206.056C211.04 205.591 211.508 205.045 212.075 204.494C212.356 204.213 212.649 203.92 212.955 203.614C213.263 203.311 213.603 203.016 213.945 202.7C214.625 202.061 215.4 201.434 216.208 200.766C219.77 197.919 223.704 195.573 227.902 193.794C228.874 193.4 229.794 193.016 230.68 192.722C231.12 192.571 231.541 192.413 231.956 192.285L233.148 191.929C233.903 191.691 234.604 191.539 235.214 191.391C235.521 191.32 235.804 191.25 236.068 191.197L236.794 191.071C237.668 190.928 238.155 190.884 238.172 190.958Z" fill="white"/>
<path d="M82.37 223.778L29.4181 225.657C24.8541 225.657 21.0561 222.645 20.6771 218.731L0.316856 8.34936C-0.109776 3.94613 3.92636 0.168945 9.05785 0.168945L62.0098 2.04811C66.5738 2.04811 70.3718 5.05934 70.7508 8.97443L91.111 215.597C91.5406 220.001 87.5015 223.778 82.37 223.778Z" fill="#1D3A62"/>
<path d="M89.7637 223.778L36.8108 225.657C32.2468 225.657 28.4488 222.645 28.0698 218.731L7.71052 8.34939C7.28488 3.94616 11.32 0.168976 16.4515 0.168976L69.4035 2.04814C73.9674 2.04814 77.7654 5.05937 78.1444 8.97446L98.5037 215.597C98.9313 220.001 94.8952 223.778 89.7637 223.778Z" fill="#8BA7BA"/>
<path d="M91.219 223.778L38.2671 225.657C33.7031 225.657 29.9051 222.645 29.5261 218.731L9.16585 8.34939C8.74021 3.94616 12.7753 0.168976 17.9068 0.168976L70.8588 2.04814C75.4227 2.04814 79.2208 5.05937 79.5998 8.97446L99.959 215.597C100.386 220.001 96.3505 223.778 91.219 223.778Z" fill="#1D3A62"/>
<path d="M94.4615 218.792C93.5764 219.6 92.4156 220.039 91.2171 220.019L38.2641 221.894C37.233 221.951 36.2169 221.628 35.4078 220.986C34.5987 220.345 34.0526 219.429 33.8728 218.412L30.9171 187.846L13.5165 8.03586C13.4682 7.49998 13.5468 6.96025 13.7459 6.46038C13.945 5.96051 14.259 5.51454 14.6625 5.15858C15.5475 4.35023 16.7084 3.91111 17.9068 3.93127L70.8588 5.81043C71.8899 5.7539 72.906 6.07699 73.7151 6.71864C74.5242 7.36029 75.0703 8.27607 75.2501 9.29294L85.3276 111.577L95.6124 215.911C95.659 216.447 95.5792 216.988 95.3793 217.488C95.1794 217.988 94.8651 218.435 94.4615 218.792Z" fill="#E6425F"/>
<path d="M84.2887 99.5851L28.0557 158.276L24.8569 125.225L83.0376 88.324L84.2887 99.5851Z" fill="#E59BA7"/>
<path d="M94.4606 218.792C93.5755 219.6 92.4147 220.039 91.2162 220.019L38.2642 221.898C37.2331 221.955 36.217 221.632 35.4079 220.99C34.5988 220.349 34.0528 219.433 33.8729 218.416L30.9172 187.85C43.5882 169.811 70.3588 132.443 85.3287 111.572L95.6135 215.911C95.6599 216.448 95.5797 216.988 95.3795 217.488C95.1793 217.989 94.8646 218.435 94.4606 218.792Z" fill="#E69BA7"/>
<path d="M31.8408 3.92731L34.5842 8.16287C34.8551 8.45713 35.1832 8.69296 35.5485 8.85589C35.9137 9.01883 36.3085 9.10543 36.7084 9.11039L58.9488 9.38919C59.3933 9.39493 59.8333 9.29967 60.2357 9.11062C60.638 8.92157 60.9922 8.64365 61.2715 8.29781L63.7846 3.93227L31.8408 3.92731Z" fill="#1D3A62"/>
<path d="M45.7446 196.863C49.2377 196.583 51.6926 191.659 51.2278 185.866C50.7629 180.073 47.5543 175.604 44.0612 175.884C40.5681 176.164 38.1132 181.088 38.578 186.881C39.0428 192.674 42.2514 197.143 45.7446 196.863Z" fill="#6DC8F9"/>
<path d="M63.9613 195.333C67.4537 195.052 69.9081 190.13 69.4433 184.338C68.9785 178.546 65.7706 174.078 62.2782 174.358C58.7858 174.639 56.3314 179.561 56.7962 185.353C57.2609 191.145 60.4689 195.613 63.9613 195.333Z" fill="#6DC8F9"/>
<path d="M87.1692 182.612C87.6335 188.404 85.1789 193.327 81.6875 193.606C78.196 193.885 74.9874 189.418 74.522 183.626C74.0567 177.833 76.5064 172.91 80.0037 172.631C83.5011 172.353 86.7048 176.819 87.1692 182.612Z" fill="#48B59D"/>
<path d="M55.8874 116.859C68.038 115.897 76.5936 98.7802 74.9968 78.6288C73.4001 58.4774 62.2557 42.922 50.1051 43.8848C37.9545 44.8476 29.3989 61.964 30.9957 82.1154C32.5924 102.267 43.7368 117.822 55.8874 116.859Z" fill="#EFFFFB"/>
<path d="M40.7119 86.4329L51.2954 98.6286C51.6606 99.0498 52.1281 99.3699 52.6528 99.5582C53.1776 99.7465 53.7419 99.7967 54.2917 99.704C54.8414 99.6112 55.358 99.3786 55.7919 99.0285C56.2258 98.6784 56.5623 98.2226 56.7691 97.7049L68.2961 68.8626C68.6131 68.0695 68.6053 67.1835 68.2743 66.3961L68.2555 66.3504C68.0054 65.7558 67.5841 65.249 67.0451 64.8945C66.5062 64.54 65.874 64.3538 65.2289 64.3597C64.5838 64.3655 63.9551 64.5632 63.4227 64.9274C62.8903 65.2916 62.4782 65.8059 62.239 66.405L52.5485 90.6704L45.6926 82.2509C45.2819 81.7465 44.7294 81.3768 44.1065 81.1897C43.4835 81.0026 42.8188 81.0066 42.1981 81.2013C41.5775 81.396 41.0295 81.7723 40.625 82.2817C40.2205 82.791 39.9781 83.41 39.9291 84.0586C39.8965 84.4865 39.9488 84.9165 40.0832 85.324C40.2175 85.7315 40.4312 86.1084 40.7119 86.4329Z" fill="#6DC8F9"/>
<path d="M36.5209 140.473C36.1119 140.475 35.7185 140.317 35.4247 140.032C35.1309 139.747 34.9602 139.359 34.9491 138.95C34.9379 138.541 35.0872 138.144 35.365 137.844C35.6428 137.544 36.0271 137.364 36.4356 137.344L81.5326 134.839C81.9473 134.816 82.3541 134.958 82.6637 135.235C82.9732 135.512 83.16 135.901 83.183 136.316C83.2061 136.73 83.0634 137.137 82.7864 137.447C82.5095 137.756 82.1209 137.943 81.7062 137.966L36.6083 140.47C36.5795 140.472 36.5497 140.473 36.5209 140.473Z" fill="#EFFFFB"/>
<path d="M70.3519 27.772H70.3083L25.2103 26.5189C24.7952 26.5073 24.4017 26.3313 24.1164 26.0296C23.8311 25.7279 23.6773 25.3252 23.6888 24.9101C23.7004 24.495 23.8764 24.1015 24.1781 23.8162C24.4798 23.5309 24.8825 23.3771 25.2976 23.3886L70.3946 24.6417C70.8098 24.6474 71.2058 24.8178 71.4954 25.1154C71.785 25.413 71.9446 25.8135 71.9389 26.2287C71.9332 26.644 71.7629 27.0399 71.4653 27.3295C71.1676 27.6192 70.7672 27.7787 70.3519 27.773V27.772Z" fill="#EFFFFB"/>
<path d="M36.5199 152.532C36.1145 152.532 35.7249 152.374 35.4333 152.092C35.1417 151.811 34.9708 151.427 34.9565 151.021C34.9423 150.616 35.0858 150.221 35.3568 149.92C35.6279 149.618 36.0054 149.434 36.4098 149.405L81.5068 146.273C81.9211 146.245 82.3299 146.382 82.6432 146.654C82.9565 146.927 83.1488 147.313 83.1776 147.727C83.2064 148.141 83.0694 148.55 82.7968 148.863C82.5243 149.177 82.1384 149.369 81.724 149.398L36.6271 152.53C36.5934 152.53 36.5566 152.532 36.5199 152.532Z" fill="#EFFFFB"/>
<path d="M96.4717 45.6368C96.4717 45.6368 93.521 35.49 93.3503 33.8489C93.1797 32.2079 92.2589 26.8829 94.911 25.3163C97.563 23.7496 96.0024 19.0527 98.8171 18.1131C101.906 17.0843 105.756 17.2629 108.956 17.371C112.925 17.5049 118.044 19.3196 119.726 23.3587C120.969 26.3442 119.442 31.7554 118.768 34.849L96.4717 45.6368Z" fill="#4D3426"/>
<g style="mix-blend-mode:overlay" opacity="0.52">
<path d="M95.9625 33.8481C95.7919 32.207 94.8712 26.8821 97.5232 25.3154C100.175 23.7488 98.6146 19.0519 101.429 18.1123C103.189 17.5845 105.015 17.3129 106.852 17.3057C104.147 17.1264 101.43 17.399 98.815 18.1123C95.9963 19.0519 97.5619 23.7498 94.9089 25.3154C92.2558 26.8811 93.1775 32.206 93.3482 33.8481C93.5188 35.4901 96.4695 45.636 96.4695 45.636L98.7624 44.5268C97.9935 41.8519 96.0985 35.1567 95.9625 33.8481Z" fill="#FFF200"/>
</g>
<path d="M117.128 45.4792C116.959 46.6002 116.366 47.6135 115.473 48.3109C113.039 50.0849 109 48.5301 107.859 52.1387C107.614 52.9244 107.116 54.0059 106.878 55.0705C106.631 55.8547 106.703 56.7047 107.077 57.4368C107.275 57.7414 107.634 58.054 107.55 58.4508C107.466 58.8477 106.992 59.0679 106.657 59.1939C105.939 59.406 105.184 59.4635 104.443 59.3626C101.292 59.1215 95.152 57.6759 94.2967 53.9305C94.1566 52.9083 94.2817 51.8673 94.6599 50.9074C95.777 47.1808 98.2416 42.1148 97.6483 38.1799C97.1471 37.9048 96.6687 37.5903 96.2176 37.2393C95.804 36.7058 95.5965 36.0411 95.6332 35.3671C95.7432 34.6214 96.0364 33.9147 96.4866 33.3102C96.9368 32.7058 97.5299 32.2224 98.2128 31.9034C100.483 30.8378 101.369 33.857 102.112 35.4663C102.374 36.0318 102.686 36.7511 103.413 36.4584C103.828 36.3371 104.194 36.0882 104.459 35.7469C104.725 35.4057 104.876 34.9895 104.891 34.5575C104.762 33.8548 104.776 33.1331 104.934 32.4362C105.559 30.814 107.536 30.055 108.593 28.7652C109.216 27.9099 109.494 26.8507 109.37 25.7996C109.396 24.9463 110.333 24.6249 111.018 24.3629C112.285 23.8817 114.482 23.0959 115.775 23.9234C116.595 24.4562 116.873 25.622 117.203 26.4753C117.575 27.4555 118.082 28.3842 118.37 29.3902C119.561 33.6814 118.066 41.2129 117.128 45.4792Z" fill="#FFB980"/>
<g style="mix-blend-mode:overlay" opacity="0.52">
<path d="M99.6704 40.4906C99.9174 37.2065 100.191 34.5941 100.254 33.8927C100.348 33.4698 100.357 33.0322 100.278 32.606C100.2 32.1798 100.036 31.7738 99.7974 31.4123C98.3091 29.7504 95.6878 34.2082 95.6362 35.3631C95.5996 36.0371 95.807 36.7018 96.2206 37.2353C96.6718 37.5863 97.1502 37.9008 97.6513 38.1759C98.2466 42.1108 95.7791 47.1768 94.6629 50.9034C94.2849 51.863 94.1598 52.9037 94.2998 53.9255C94.8951 56.5181 98.0214 58.0093 100.936 58.7614C98.711 58.1899 99.1277 47.7136 99.6704 40.4906Z" fill="#FFF200"/>
</g>
<path d="M118.371 29.3803C118.083 28.3753 117.577 27.4456 117.204 26.4653C116.875 25.6121 116.596 24.4463 115.776 23.9135C114.562 23.1356 112.552 23.7815 111.261 24.2627C111.427 29.8466 112.199 35.4216 108.211 39.4101C106.958 41.2893 102.574 38.7841 101.947 40.6632C99.6957 46.4362 99.3409 52.7762 100.934 58.7643C102.085 59.0624 103.259 59.2615 104.444 59.3596C105.186 59.4605 105.94 59.403 106.658 59.191C106.997 59.064 107.47 58.8358 107.551 58.4478C107.633 58.0599 107.272 57.7384 107.078 57.4338C106.704 56.7017 106.632 55.8518 106.879 55.0675C107.116 54.0029 107.615 52.9215 107.86 52.1357C109.001 48.5272 113.04 50.0829 115.474 48.3079C116.368 47.6112 116.96 46.598 117.13 45.4772C118.066 41.2129 119.561 33.6814 118.371 29.3803Z" fill="#FFB980"/>
<path d="M114.595 48.4795H114.758C113.558 49.304 112.095 49.2643 110.72 49.6305C110.062 49.7504 109.448 50.0463 108.944 50.4866C108.44 50.9269 108.065 51.4954 107.858 52.1317C107.56 53.101 107.18 54.1398 106.841 55.0507C106.019 54.3561 105.955 52.9473 105.749 51.962C105.563 51.0405 105.46 50.1041 105.442 49.1641C105.384 46.4347 107.741 47.5281 109.502 47.8237C111.182 48.1597 112.884 48.3789 114.595 48.4795Z" fill="#FF7657"/>
<path d="M116.474 37.5796C114.077 37.2492 108.834 37.9765 106.797 38.286C106.815 38.24 106.818 38.1898 106.807 38.1419C106.795 38.094 106.77 38.0505 106.734 38.0171C105.906 37.2621 105.083 36.4297 104.191 35.755C103.264 35.0545 102.193 34.49 101.214 33.8699C101.668 34.9444 102.325 35.2252 103.169 35.9128C104.194 36.7475 105.232 37.566 106.283 38.3684L105.965 38.4199C105.379 39.7371 105.13 41.1794 105.239 42.6168C105.274 43.2877 105.356 43.9554 105.484 44.615C105.577 45.1111 105.966 45.761 105.742 46.2531C104.894 45.8092 104.117 45.244 103.433 44.5753C101.028 42.6289 98.9046 40.3583 97.1235 37.8286C97.3893 38.3761 97.6212 38.9394 97.8181 39.5153C98.2056 40.1376 98.659 40.7164 99.1704 41.2417C99.9105 42.0979 100.715 42.8738 101.472 43.7052C101.98 44.2977 102.554 44.8303 103.183 45.2927C103.652 45.6201 104.143 45.9148 104.652 46.1747C104.865 46.2829 105.976 46.5835 106.041 46.776C106.162 47.1431 106.25 47.3623 106.25 47.3623C106.25 47.3623 109.954 51.709 114.761 48.4845C119.568 45.2599 118.814 39.2266 118.814 39.2266C118.814 39.2266 119.483 37.9913 116.474 37.5796Z" fill="#48B59D"/>
<g style="mix-blend-mode:overlay" opacity="0.52">
<path d="M107.986 38.1124C107.528 38.1759 107.12 38.2364 106.795 38.286C106.813 38.24 106.816 38.1898 106.805 38.1419C106.793 38.094 106.768 38.0505 106.732 38.0171C105.904 37.2621 105.081 36.4297 104.189 35.755C103.262 35.0555 102.191 34.491 101.212 33.8699C101.666 34.9444 102.324 35.2252 103.167 35.9128C104.192 36.7475 105.23 37.566 106.281 38.3684L105.963 38.4199C105.377 39.7371 105.128 41.1794 105.238 42.6168C105.272 43.2877 105.354 43.9554 105.482 44.615C105.575 45.1111 105.964 45.761 105.74 46.2531C104.892 45.8092 104.115 45.244 103.431 44.5753C101.026 42.6289 98.9027 40.3583 97.1216 37.8286C97.3874 38.3761 97.6194 38.9394 97.8161 39.5153C98.2037 40.1376 98.657 40.7164 99.1684 41.2417C99.9086 42.0979 100.713 42.8738 101.471 43.7052C101.979 44.298 102.553 44.8306 103.182 45.2927C103.651 45.6201 104.142 45.9148 104.651 46.1747C104.864 46.2829 105.975 46.5835 106.04 46.776C106.161 47.1431 106.25 47.3623 106.25 47.3623C107.387 48.604 108.922 49.4109 110.589 49.6443C108.42 46.2147 107.5 42.1414 107.986 38.1124Z" fill="#FFF200"/>
</g>
<path d="M109.653 57.7146C109.306 58.2976 108.791 58.762 108.176 59.0465C107.56 59.331 106.873 59.4221 106.205 59.308C105.65 59.0956 105.13 58.8017 104.662 58.4359C103.796 57.8535 102.931 57.2791 102.036 56.7413C100.395 55.6913 98.6437 54.8261 96.8129 54.1617C96.0132 53.8918 95.1827 53.7836 94.3612 53.5862C93.7798 53.4483 93.3353 53.237 93.3502 52.5682C93.4236 51.8058 93.5824 51.054 93.8235 50.3269C93.9051 49.7596 94.174 49.2357 94.5875 48.8387C95.4804 48.1759 96.9687 48.9379 97.8031 49.3258C99.6697 50.2981 101.486 51.3641 103.245 52.5196C104.748 53.3935 106.346 54.0925 108.007 54.6032C108.96 54.9236 110.11 55.3602 110.037 56.5677C110.014 56.9774 109.881 57.3734 109.653 57.7146Z" fill="#EF5B51"/>
<path d="M75.6768 217.79C73.3542 216.26 73.5843 213.084 72.5733 210.829C71.1956 207.976 69.0014 205.597 66.2691 203.993C63.3075 202.272 58.7227 201.476 55.6827 203.497C53.2578 205.107 50.2674 209.415 52.9751 211.953C58.5818 217.262 66.66 222.364 74.0655 224.641C75.6639 225.131 78.7476 226.724 79.8836 224.733C80.5841 223.508 81.1734 221.608 80.3212 220.211C79.326 218.575 77.1581 218.765 75.6768 217.79Z" fill="#3C464F"/>
<g style="mix-blend-mode:overlay" opacity="0.52">
<path d="M56.9893 213.559C54.2817 211.021 57.2731 206.713 59.697 205.103C60.7291 204.505 61.869 204.117 63.0514 203.961C64.2338 203.804 65.4355 203.882 66.5876 204.191C66.4814 204.126 66.3772 204.051 66.2701 203.993C63.3085 202.272 58.7237 201.476 55.6837 203.497C53.2588 205.107 50.2684 209.415 52.976 211.953C58.7213 217.346 65.4916 221.53 72.8849 224.256C67.0538 221.554 61.6886 217.943 56.9893 213.559Z" fill="#FFF200"/>
</g>
<path d="M107.673 159.766C106.771 163.524 106.796 167.419 103.978 170.496C103.272 171.24 102.493 171.911 101.654 172.5C101.071 172.933 100.476 173.346 99.9066 173.777C98.5521 174.793 97.2574 175.886 96.0292 177.051C93.695 179.332 91.5672 181.815 89.6704 184.471C87.4851 187.637 85.1264 190.679 82.6052 193.585C81.3742 194.864 80.0646 196.064 78.6841 197.18C77.7589 197.873 76.94 198.698 76.2533 199.628C75.7572 200.405 75.5648 201.326 75.0945 202.116C74.5051 203.093 73.3651 203.513 72.6577 204.377C72.3183 204.768 72.0658 205.227 71.9168 205.723C71.7678 206.219 71.7258 206.741 71.7935 207.254C71.9433 208.206 72.6269 209.409 71.5683 210.06C70.5221 210.532 69.4081 210.836 68.2674 210.962C66.4447 211.375 64.8603 211.775 63.1081 210.924C61.091 209.932 59.9758 208.28 58.7604 206.47C58.2426 205.794 57.625 205.201 56.9289 204.711C56.6125 204.436 56.3589 204.096 56.185 203.715C56.0111 203.333 55.921 202.919 55.9208 202.5C55.8739 201.113 56.32 199.755 57.1799 198.667C58.2796 197.379 59.5051 196.204 60.838 195.159C62.1467 194.014 63.4504 192.842 64.6965 191.62C67.2263 189.118 69.5123 186.381 71.5237 183.446C73.5973 180.446 75.4824 177.313 77.5679 174.318C79.5407 171.449 81.8708 168.844 84.5022 166.564C86.9261 164.491 89.9591 162.536 91.4295 159.599C92.0024 158.269 92.4818 156.9 92.8642 155.503C94.5935 150.459 93.2154 144.71 92.7947 139.442C92.4435 135.071 92.2371 130.204 95.0301 126.815C96.0322 127.059 97.0412 127.297 98.0433 127.541C98.9651 127.363 99.9177 127.431 100.804 127.74C101.425 127.957 102.012 128.258 102.552 128.633C103.604 128.89 104.65 129.14 105.702 129.397L104.976 130.786C107.622 133.646 109.542 137.1 110.575 140.857C110.964 142.231 111.224 143.638 111.352 145.06C111.845 150.432 108.908 154.616 107.673 159.766Z" fill="#A2B1C4"/>
<path d="M62.5227 210.233C62.0058 209.557 61.3893 208.963 60.6942 208.472C60.3776 208.198 60.1237 207.858 59.9496 207.477C59.7755 207.095 59.6853 206.681 59.6851 206.262C59.6381 204.875 60.0842 203.517 60.9442 202.428C62.0445 201.141 63.2699 199.966 64.6023 198.921C65.912 197.775 67.2147 196.603 68.4609 195.382C70.9892 192.879 73.2738 190.142 75.284 187.207C77.3576 184.207 79.2427 181.076 81.3283 178.079C83.3011 175.211 85.6313 172.605 88.2625 170.325C90.6864 168.251 93.7194 166.297 95.1898 163.36C95.7625 162.029 96.2416 160.66 96.6235 159.263C98.3528 154.221 96.9747 148.471 96.5541 143.204C96.2038 138.831 95.9965 133.965 98.7904 130.576C99.7925 130.82 100.801 131.059 101.803 131.304C102.725 131.125 103.678 131.193 104.565 131.502C105.185 131.72 105.772 132.02 106.312 132.395L106.338 132.402C105.905 131.844 105.456 131.299 104.975 130.783L105.701 129.394C104.649 129.137 103.603 128.887 102.551 128.63C102.011 128.255 101.424 127.954 100.803 127.737C99.9167 127.428 98.9641 127.36 98.0423 127.538C97.0402 127.294 96.0312 127.056 95.0291 126.812C92.2361 130.2 92.4425 135.067 92.7937 139.439C93.2134 144.707 94.5916 150.452 92.8632 155.5C92.4809 156.897 92.0015 158.266 91.4285 159.596C89.9571 162.533 86.9251 164.488 84.5012 166.561C81.8699 168.841 79.5397 171.446 77.567 174.315C75.4834 177.309 73.5983 180.441 71.5227 183.443C69.5114 186.378 67.2254 189.115 64.6956 191.617C63.4494 192.839 62.1457 194.011 60.837 195.157C59.5041 196.201 58.2787 197.376 57.1789 198.664C56.319 199.752 55.8729 201.11 55.9199 202.497C55.9197 202.916 56.0098 203.331 56.1838 203.713C56.3579 204.095 56.612 204.436 56.9289 204.711C57.6241 205.202 58.2406 205.795 58.7575 206.471C59.9322 208.221 61.0216 209.819 62.9146 210.818C62.7857 210.625 62.655 210.43 62.5227 210.233Z" fill="#6DC8F9"/>
<path d="M107.673 159.764C106.771 163.522 106.796 167.418 103.978 170.494C103.272 171.238 102.493 171.909 101.654 172.498C100.829 166.855 103.324 163.265 103.274 157.733C103.223 152.117 98.3202 149.564 97.6772 144.714C97.4699 143.154 97.2804 141.594 97.0948 140.035C96.6374 136.133 96.0431 131.472 101.071 133.27C101.797 133.53 102.5 133.853 103.17 134.235C106.041 135.947 108.556 138.194 110.579 140.855C110.968 142.229 111.228 143.636 111.356 145.058C111.845 150.431 108.908 154.616 107.673 159.764Z" fill="#A2B1C4"/>
<path d="M94.5439 128.09C94.66 129.854 95.1251 131.577 95.9122 133.16C96.6332 134.418 97.5359 135.563 98.591 136.557C99.9959 137.946 101.553 139.17 102.927 140.587C104.209 141.973 105.307 143.519 106.193 145.186C108.303 148.918 110.261 152.759 112.725 156.279C113.832 157.851 115.249 159.157 116.37 160.716C116.848 161.667 117.279 162.641 117.659 163.634C118.306 164.74 119.31 165.512 119.653 166.798C119.891 167.693 119.866 168.638 119.58 169.519C119.318 170.313 118.919 171.055 118.642 171.847C118.342 172.7 118.109 173.576 117.947 174.466C117.642 176.081 117.468 177.718 117.3 179.347C116.791 184.221 116.274 189.094 115.787 193.977C115.577 196.05 115.39 198.131 115.3 200.219C115.147 201.807 115.206 203.408 115.475 204.981C115.744 206.188 116.384 207.026 115.933 208.291C115.439 209.276 114.89 210.233 114.289 211.156C113.754 212.529 113.439 213.978 113.357 215.449C113.241 216.342 112.914 217.755 113.445 218.613C114.012 219.522 115.528 219.239 116.39 219.101C118.282 218.824 120.143 218.366 121.947 217.732C123.534 217.143 125.052 216.379 126.472 215.455C127.774 214.618 129.426 213.63 130.203 212.24C130.691 211.019 130.89 209.702 130.785 208.391C130.994 206.659 131.297 204.94 131.695 203.241C132.276 199.306 131.622 195.276 132.16 191.325C132.444 189.251 132.996 187.236 133.351 185.173C133.6 183.227 133.705 181.265 133.663 179.303C133.66 177.878 133.912 176.464 134.405 175.128C134.95 173.716 135.816 172.377 135.977 170.842C136.053 169.056 135.943 167.266 135.648 165.503C135.472 163.543 135.099 161.605 134.536 159.719C133.903 157.792 132.776 156.075 132.034 154.19C131.183 152.044 130.528 149.817 129.809 147.621C128.485 143.577 126.818 139.663 125.268 135.705C124.527 133.806 123.886 131.864 123.101 129.972C122.736 128.937 122.15 127.994 121.384 127.208C120.715 126.591 120.195 125.829 119.864 124.982" fill="#A2B1C4"/>
<path d="M120.131 215.453C120.212 213.982 120.526 212.533 121.062 211.16C121.663 210.237 122.212 209.28 122.707 208.295C123.157 207.029 122.517 206.192 122.248 204.985C121.979 203.412 121.921 201.811 122.075 200.223C122.169 198.139 122.35 196.055 122.562 193.981C123.049 189.099 123.566 184.226 124.075 179.351C124.242 177.722 124.417 176.085 124.723 174.47C124.884 173.58 125.117 172.704 125.417 171.85C125.693 171.057 126.093 170.316 126.356 169.523C126.641 168.642 126.666 167.697 126.428 166.802C126.086 165.513 125.082 164.744 124.435 163.638C124.054 162.645 123.624 161.671 123.145 160.72C122.025 159.164 120.606 157.854 119.501 156.283C117.034 152.762 115.078 148.922 112.968 145.19C112.082 143.523 110.984 141.978 109.702 140.591C108.327 139.174 106.77 137.95 105.366 136.561C104.311 135.567 103.409 134.422 102.688 133.164C101.901 131.581 101.436 129.858 101.32 128.094L120.239 125.777C120.095 125.525 119.967 125.263 119.856 124.994L94.5469 128.094C94.663 129.858 95.128 131.581 95.9151 133.164C96.636 134.422 97.5386 135.567 98.5939 136.561C99.9978 137.95 101.555 139.174 102.929 140.591C104.211 141.977 105.309 143.523 106.195 145.19C108.305 148.922 110.263 152.763 112.727 156.283C113.834 157.855 115.251 159.161 116.372 160.72C116.85 161.671 117.281 162.645 117.661 163.638C118.308 164.744 119.312 165.516 119.655 166.802C119.893 167.697 119.868 168.642 119.582 169.523C119.32 170.317 118.92 171.059 118.644 171.85C118.343 172.704 118.111 173.58 117.949 174.47C117.644 176.085 117.47 177.722 117.302 179.351C116.793 184.225 116.276 189.098 115.789 193.981C115.578 196.054 115.392 198.135 115.302 200.223C115.149 201.811 115.208 203.412 115.477 204.985C115.746 206.192 116.385 207.03 115.935 208.295C115.441 209.28 114.892 210.237 114.291 211.16C113.756 212.533 113.441 213.982 113.359 215.453C113.243 216.346 112.916 217.759 113.447 218.617C114.014 219.526 115.53 219.243 116.392 219.104C117.636 218.913 118.868 218.65 120.081 218.318C119.885 217.371 119.902 216.393 120.131 215.453Z" fill="#6DC8F9"/>
<path d="M93.3503 52.724C92.6558 53.4185 91.9821 54.128 91.3352 54.8631C88.5982 57.9437 86.7768 61.728 86.0767 65.7889C85.5297 69.8512 85.7366 73.9795 86.6869 77.9667C87.5382 82.2956 88.4917 86.6085 89.3201 90.9443C90.099 95.0251 90.6665 99.1356 91.0802 103.275C91.5049 107.531 90.6119 111.35 90.6397 115.6C90.6576 118.545 89.3826 121.27 89.5791 124.191C89.717 126.249 89.9928 129.305 91.9603 130.412C93.0558 130.933 94.2423 131.236 95.4537 131.305C101.932 132.098 105.387 133.054 111.642 130.83C114.581 129.797 117.98 129.624 120.751 128.152C121.78 127.606 122.422 127.327 122.699 126.15C122.813 125.665 122.546 123.301 121.766 123.32C122.94 123.292 123.59 121.773 123.21 120.663C122.652 119.034 121.401 118.492 120.95 116.786C120.375 114.603 120.467 112.056 120.256 109.812L119.252 99.1108C118.532 93.509 117.848 87.8934 117.011 82.3065C116.159 76.6323 115.476 70.8053 113.781 65.3057C112.909 62.5286 111.503 59.9486 109.642 57.7107L93.3503 52.724Z" fill="#EF5B51"/>
<g style="mix-blend-mode:overlay" opacity="0.52">
<path d="M101.027 131.31C99.8153 131.241 98.6287 130.938 97.5332 130.417C95.5618 129.31 95.287 126.25 95.152 124.196C94.9536 121.275 96.2305 118.55 96.2117 115.605C96.1849 111.356 97.0768 107.536 96.6532 103.28C96.2385 99.1406 95.6709 95.03 94.8931 90.9492C94.0636 86.6134 93.1072 82.2995 92.2599 77.9717C91.3092 73.9845 91.102 69.8562 91.6487 65.7938C92.3485 61.7328 94.1699 57.9484 96.9072 54.8681C97.1523 54.5893 97.4033 54.3184 97.6583 54.0476L93.3532 52.729C92.6587 53.4235 91.986 54.1329 91.3381 54.8681C88.6011 57.9486 86.7797 61.7329 86.0797 65.7938C85.5327 69.8561 85.7395 73.9844 86.6898 77.9717C87.5411 82.3005 88.4946 86.6134 89.3231 90.9492C90.1019 95.03 90.6694 99.1406 91.0832 103.28C91.5078 107.536 90.6149 111.355 90.6427 115.605C90.6605 118.55 89.3856 121.275 89.582 124.196C89.7199 126.254 89.9958 129.31 91.9632 130.417C93.0587 130.938 94.2453 131.241 95.4566 131.31C100.066 131.874 103.15 132.515 106.797 132.04C105.069 131.863 103.222 131.578 101.027 131.31Z" fill="#FFF200"/>
</g>
<path d="M92.4693 95.9597C93.1817 99.2834 93.9942 102.801 96.3844 105.217C98.1633 107.016 100.599 107.974 102.958 108.888L119.268 115.175C119.109 111.644 118.95 108.113 118.789 104.582C108.64 100.72 99.9406 93.8013 93.893 84.7819C92.8721 83.254 90.3818 77.7098 89.8837 82.4007C89.4382 86.5827 91.5922 91.866 92.4693 95.9597Z" fill="#D64238"/>
<path d="M108.516 78.8359C109.409 85.0587 107.615 91.5306 109.145 97.6275C108.89 96.6115 106.92 95.027 106.273 94.0984C105.378 92.8121 104.578 91.4617 103.88 90.0583C102.459 87.1971 101.452 84.1479 100.892 81.0027C100.326 77.86 100.217 74.652 100.566 71.478C100.777 69.6077 101.705 63.5406 104.183 67.1025C106.459 70.6541 107.937 74.6574 108.516 78.8359Z" fill="#D64238"/>
<path d="M114.134 219.141C113.632 221.075 113.625 223.104 114.112 225.042C114.621 226.795 116.456 226.781 117.976 226.846C123.461 227.093 128.975 226.977 134.468 226.941C137.457 226.919 140.455 226.954 143.445 226.796C144.805 226.723 147.235 226.854 148.122 225.501C148.871 224.352 148.493 222.431 148.092 221.246C148.004 220.867 147.811 220.52 147.536 220.245C147.261 219.97 146.914 219.777 146.535 219.689C145.373 219.465 144.197 219.324 143.014 219.267C141.074 219.15 139.195 218.539 137.557 217.492C135.63 216.146 134.153 214.317 132.05 213.207C131.44 212.887 130.821 212.589 130.202 212.283" fill="#3C464F"/>
<path d="M164.076 76.0985C164.106 76.2414 164.063 76.4358 164.081 76.6591C164.108 77.0887 164.132 77.5123 164.158 77.9419L164.97 91.4642C165.126 94.104 165.283 96.7462 165.441 99.3906C165.697 103.632 165.95 107.874 166.2 112.114C166.259 113.084 166.314 114.063 166.372 115.032C160.077 115.403 153.781 115.777 147.485 116.154C146.611 116.208 145.734 116.253 144.86 116.31L133.807 116.971L120.705 117.753L120.309 117.776C119.667 117.815 119.019 117.857 118.376 117.891C118.118 113.484 117.857 109.077 117.593 104.669C117.173 97.6404 116.754 90.6139 116.336 83.5894C116.237 81.9731 116.144 80.3589 116.044 78.7426C116.509 78.7565 116.973 78.73 117.433 78.6633C118.701 78.5859 119.969 78.5085 121.234 78.44C125.309 78.1953 129.385 77.9525 133.462 77.7118C138.294 77.4207 143.126 77.1327 147.957 76.8476L159.726 76.1471C160.847 76.0777 161.973 76.0142 163.094 75.9487C163.355 75.897 163.622 75.8803 163.887 75.8991C163.935 75.9101 163.978 75.9349 164.012 75.9703C164.045 76.0058 164.068 76.0504 164.076 76.0985Z" fill="#D49F55"/>
<path d="M164.888 76.1955L116.497 78.6037L118.413 117.12L166.805 114.711L164.888 76.1955Z" fill="#D49F55"/>
<path d="M144.125 77.2274L137.262 77.5709L138.453 101.38L145.316 101.036L144.125 77.2274Z" fill="#F0CD9C"/>
<path d="M164.79 76.3247C164.819 76.4666 164.777 76.6621 164.79 76.8853C164.817 77.3149 164.841 77.7386 164.868 78.1682L165.679 91.6904C165.836 94.3302 165.993 96.9724 166.151 99.6168C166.407 103.859 166.66 108.1 166.91 112.34C166.968 113.31 167.024 114.288 167.081 115.258C160.786 115.629 154.491 116.003 148.194 116.38C147.32 116.434 146.443 116.48 145.569 116.536L134.516 117.197L121.421 117.974L118.382 117.885L160.981 111.093L163.81 76.1689L164.79 76.3247Z" fill="#D1773B"/>
<path d="M163.396 104.077L156.035 104.444L156.402 111.804L163.763 111.438L163.396 104.077Z" fill="#4A6570"/>
<path d="M153.73 106.059L146.37 106.425L146.426 107.566L153.787 107.199L153.73 106.059Z" fill="#4A6570"/>
<path d="M153.863 108.732L146.503 109.098L146.559 110.239L153.92 109.872L153.863 108.732Z" fill="#4A6570"/>
<path d="M141.541 107.05C140.504 107.071 139.48 107.395 138.417 107.421C135.993 107.48 133.854 106.138 131.753 105.118C124.555 101.632 116.92 98.33 110.223 93.9257C108.545 92.8224 103.179 80.6307 104.088 80.466L91.9722 82.7083C93.6479 88.3547 94.2413 99.0265 100.617 101.683C105.624 103.767 110.568 106.123 115.646 108.014C121.024 110.015 126.773 110.736 132.168 112.677C136.388 114.199 139.635 118.653 144.322 118.701C145.244 118.687 146.163 118.604 147.072 118.452L149.959 118.043C150.463 118.005 150.955 117.87 151.408 117.646C151.633 117.531 151.82 117.354 151.948 117.136C152.076 116.918 152.14 116.668 152.131 116.415C151.662 116.49 150.345 115.034 149.719 114.82C148.33 114.346 147.16 113.88 146.644 112.471C147.355 114.604 150.269 113.905 151.747 113.257C149.359 111.236 145.769 108.028 142.709 107.184C142.328 107.083 141.935 107.038 141.541 107.05Z" fill="#FFB980"/>
<g style="mix-blend-mode:overlay" opacity="0.52">
<g style="mix-blend-mode:overlay" opacity="0.52">
<path d="M150.47 112.889C150.602 113.133 150.769 113.357 150.966 113.553L151.074 113.518C150.826 113.36 150.619 113.144 150.47 112.889Z" fill="#FFF200"/>
</g>
<g style="mix-blend-mode:overlay" opacity="0.52">
<path d="M142.051 107.422C142.406 107.409 142.76 107.372 143.111 107.314C142.976 107.268 142.842 107.223 142.714 107.186C142.333 107.084 141.939 107.039 141.545 107.051C141.091 107.07 140.639 107.121 140.192 107.204C140.799 107.359 141.424 107.432 142.051 107.422Z" fill="#FFF200"/>
</g>
<g style="mix-blend-mode:overlay" opacity="0.52">
<path d="M135.801 112.68C130.407 110.734 124.657 110.013 119.28 108.016C114.201 106.131 109.259 103.771 104.25 101.686C97.8746 99.0294 97.2813 88.3587 95.6055 82.7113L104.039 81.1506C103.956 80.7428 103.96 80.4928 104.083 80.47L91.9722 82.7083C93.6479 88.3547 94.2413 99.0265 100.617 101.683C105.624 103.767 110.568 106.123 115.646 108.014C121.024 110.015 126.773 110.736 132.168 112.677C136.388 114.199 139.635 118.653 144.322 118.701C145.048 118.697 145.772 118.641 146.49 118.532C142.557 117.722 139.566 114.038 135.801 112.68Z" fill="#FFF200"/>
</g>
</g>
<path d="M105.368 66.9457C105.478 67.4547 105.58 67.9568 105.681 68.4657C106.386 72.103 105.645 75.7909 105.667 79.451C105.674 80.4432 105.776 81.4354 105.87 82.4275C105.943 82.9065 105.958 83.3926 105.914 83.8751C105.725 85.0964 104.24 84.7045 103.383 84.5587C100.164 83.8771 96.8129 84.2049 93.7868 85.4973C93.1755 85.875 92.5209 86.1779 91.8372 86.3992C91.234 86.5232 91.0514 86.0717 90.9284 85.5558C90.5573 83.9684 90.4194 82.3472 89.9898 80.7617C89.458 78.7773 88.8111 76.8267 88.2654 74.8474C87.8092 73.0623 87.5075 71.2412 87.3635 69.4043C86.9151 64.8552 86.802 59.1761 92.3184 57.6293C96.9667 56.3236 104.406 62.4592 105.368 66.9457Z" fill="#EF5B51"/>
<g style="mix-blend-mode:overlay" opacity="0.52">
<g style="mix-blend-mode:overlay" opacity="0.52">
<path d="M93.5804 85.5558C93.2094 83.9683 93.0705 82.3471 92.6418 80.7606C92.11 78.7763 91.4632 76.8257 90.9175 74.8463C90.4609 73.0613 90.1591 71.2402 90.0156 69.4033C89.5671 64.8542 89.454 59.1751 94.9705 57.6283C95.0062 57.6184 95.0439 57.6134 95.0796 57.6035C94.1704 57.3914 93.2237 57.3999 92.3184 57.6283C86.802 59.1761 86.9151 64.8542 87.3635 69.4033C87.5075 71.2402 87.8092 73.0612 88.2654 74.8463C88.8111 76.8257 89.456 78.7753 89.9898 80.7606C90.4194 82.3481 90.5573 83.9693 90.9284 85.5558C91.0524 86.0717 91.234 86.5232 91.8372 86.3991C92.4567 86.2157 93.0475 85.9465 93.5924 85.5994C93.5874 85.5846 93.5804 85.5697 93.5804 85.5558Z" fill="#FFF200"/>
</g>
</g>
<path d="M93.7263 31.329C95.826 30.5737 98.0118 30.0834 100.233 29.8695C101.418 30.2509 102.661 30.4188 103.904 30.3656C104.993 29.9864 106.042 29.4998 107.035 28.913C108.667 28.3251 110.363 27.9331 112.087 27.7452C114.329 27.2438 116.667 27.383 118.834 28.1471C119.153 28.3186 119.519 28.3839 119.878 28.3336C121.014 28.024 120.672 24.9463 120.425 24.1665C119.665 22.4229 118.577 20.842 117.219 19.5103C116.046 18.1051 114.591 16.9617 112.948 16.1539C111.305 15.346 109.511 14.8917 107.682 14.8203C103.865 14.8203 99.6098 15.87 96.7395 18.6719C93.7402 21.6008 91.2578 27.8544 93.0169 31.8875C92.9445 31.7337 93.2302 31.5373 93.7263 31.329Z" fill="#EF5B51"/>
<path d="M105.092 29.8715C104.116 29.9213 103.148 30.0686 102.202 30.311C102.762 30.4352 103.341 30.4554 103.908 30.3705C104.356 30.2755 104.787 30.114 105.188 29.8913L105.092 29.8715Z" fill="#D64238"/>
<g style="mix-blend-mode:overlay" opacity="0.52">
<path d="M101.597 18.6788C103.849 16.6315 106.692 15.3513 109.717 15.0227C109.046 14.8921 108.364 14.8256 107.68 14.8242C103.863 14.8242 99.6079 15.874 96.7375 18.6758C93.7382 21.6047 91.2558 27.8584 93.0149 31.8915C92.9445 31.7308 93.2302 31.5343 93.7263 31.328C94.9246 30.8873 96.1557 30.5417 97.4083 30.2941C96.7435 26.3572 98.9719 21.2426 101.597 18.6788Z" fill="#FFF200"/>
</g>
<path d="M117.305 27.6986C117.826 27.8077 118.337 27.9593 118.833 28.152C119.152 28.3235 119.518 28.3888 119.877 28.3385C120.207 28.2483 120.41 27.9219 120.529 27.4893C119.45 27.4543 118.37 27.5244 117.305 27.6986Z" fill="#D64238"/>
<path d="M111.386 17.7372C113.695 17.2263 116.049 18.8286 117.195 20.8973C118.341 22.966 118.538 25.4097 118.715 27.7671C118.674 27.2174 107.978 28.6927 107.276 28.7493C105.915 25.2926 107.08 18.6907 111.386 17.7372Z" fill="white"/>
<path d="M104.703 30.4251C104.454 30.4191 104.207 30.3958 103.962 30.3556C103.577 30.3106 103.218 30.1419 102.938 29.8749C102.657 29.6079 102.471 29.2571 102.408 28.8753C102.25 26.3056 109.361 25.2172 111 25.0118C115.028 24.5862 119.1 24.9184 123.005 25.9911C123.89 26.1268 124.697 26.5753 125.279 27.2551C127.142 29.9657 122.03 29.5559 120.835 29.5172C117.424 29.4061 114.018 29.3932 110.61 29.5867C108.8 29.6909 106.587 30.4737 104.703 30.4251Z" fill="#EF5B51"/>
<path d="M120.84 28.0687C117.429 27.9576 114.023 27.9447 110.614 28.1381C107.576 28.3118 104.625 29.3892 101.73 30.2356C104.79 30.2514 107.607 29.7236 110.615 29.5867C114.024 29.3932 117.43 29.4061 120.841 29.5172C122.005 29.5549 126.884 29.9439 125.412 27.4585C124.516 28.3108 121.689 28.0965 120.84 28.0687Z" fill="#D64238"/>
<path d="M96.426 127.913C103.213 129.926 110.462 129.743 117.138 127.389C119.386 126.56 120.436 125.299 122.055 123.54C118.771 124.695 115.426 125.666 112.034 126.448C107.792 127.276 100.658 129.18 96.426 127.913Z" fill="#D64238"/>
<path d="M150.177 117.05C148.806 116.559 147.408 116.146 145.991 115.813C145.634 115.736 145.352 116.279 145.727 116.439C147.105 117.001 148.514 117.484 149.946 117.886C150.485 118.043 150.699 117.229 150.177 117.05Z" fill="#FF7657"/>
<path d="M147.005 118.341C145.688 117.843 144.331 117.461 142.948 117.198C142.886 117.184 142.822 117.194 142.768 117.227C142.714 117.259 142.675 117.311 142.658 117.371C142.642 117.432 142.649 117.497 142.679 117.552C142.709 117.607 142.759 117.649 142.819 117.668C144.091 118.204 145.408 118.627 146.755 118.933C147.085 118.994 147.367 118.495 147.005 118.341Z" fill="#FF7657"/>
<path d="M187.768 78.4598C186.537 80.6918 185.671 83.1056 185.2 85.6104C184.976 86.8658 185.052 88.1563 185.42 89.3771C185.789 90.598 186.44 91.7148 187.32 92.6369C190.406 95.4834 195.712 94.2085 198.532 91.0991C201.351 87.9896 202.326 83.6757 203.195 79.5711C204.565 73.1253 205.936 66.6799 207.307 60.2347C208.049 56.7503 211.357 50.0353 205.924 50.1275C201.447 50.2029 198.791 55.7174 197.209 58.9628C194.049 65.4562 190.902 71.9552 187.768 78.4598Z" fill="#398F7C"/>
<path d="M189.25 81.358C188.45 80.9908 187.657 80.6228 186.879 80.2249C183.173 78.3269 179.799 75.8852 176.159 73.883C173.831 72.6646 171.543 71.3678 169.229 70.1236C167.503 69.195 165.414 67.2781 163.504 66.8912C163.371 67.6096 163.402 68.3489 163.595 69.0536C163.789 69.7582 164.14 70.4097 164.622 70.959C161.187 71.4254 157.754 72.0891 154.258 72.4602C154.035 73.1952 154.022 73.9781 154.221 74.7202C154.419 75.4623 154.822 76.1339 155.383 76.659C156.529 77.6944 157.995 78.3061 159.538 78.3924C163.506 78.7545 167.704 76.9428 171.588 78.311C174.185 79.2268 176.295 82.11 178.298 83.9664C181.195 86.6601 184.081 89.2893 187.156 91.7737C189.36 91.1606 190.27 89.8519 190.757 87.6156C191.244 85.3792 191.331 82.3065 189.25 81.358Z" fill="#A8652D"/>
<path d="M222.456 205.031C223.714 207.548 228.221 216.391 225.174 218.654C224.728 218.953 224.239 219.185 223.725 219.342L220.37 220.548C213.952 222.8 207.246 224.131 200.454 224.501C199.772 224.639 199.064 224.516 198.469 224.156C196.017 222.177 200.972 221.675 201.757 221.297C203.958 220.227 206.089 217.557 207.71 215.771C209.896 213.523 211.793 211.01 213.355 208.291C214.323 206.489 213.691 206.544 215.308 205.425C217.413 204.707 219.553 204.098 221.72 203.6C221.962 204.056 222.209 204.534 222.456 205.031Z" fill="#3D535C"/>
<path d="M194.608 123.735C194.622 123.08 194.63 122.42 194.645 121.763L215.962 103.1C216.458 103.872 216.924 104.667 217.351 105.481C219.103 108.834 220.071 112.539 220.183 116.32C220.216 119.755 219.764 123.177 218.84 126.485C217.86 130.306 216.766 134.089 215.962 137.951C215.099 142.145 214.375 146.419 213.135 150.527C212.154 153.772 210.721 156.837 210.885 160.304C210.901 161.788 211.147 163.261 211.616 164.669C212.216 166.007 213.005 167.252 213.957 168.367C216.155 171.121 218.03 174.117 219.546 177.297C220.979 180.647 221.818 184.22 222.026 187.858C222.347 191.767 222.459 195.789 223.363 199.625C223.674 200.934 224.328 202.106 224.669 203.402C224.91 204.474 224.943 205.582 224.768 206.666L215.506 208.826C215.08 207.851 214.776 206.827 214.6 205.778C214.402 204.488 214.49 203.166 214.319 201.867C213.852 198.969 212.878 196.177 211.442 193.619C209.849 190.543 208.262 187.457 206.872 184.275C205.732 181.305 204.396 178.415 202.871 175.623C201.294 173.018 199.001 171.059 197.039 168.777C195.819 167.489 195.035 165.849 194.798 164.091C194.709 162.555 194.736 161.014 194.88 159.482C194.943 158.178 194.923 156.869 194.88 155.565C194.756 151.813 194.625 148.063 194.567 144.313C194.441 137.154 195.546 129.172 194.397 122.201C193.305 115.553 192.083 109.868 197.353 104.332C199.828 101.841 203.029 100.2 206.496 99.6424C209.962 99.0851 213.516 99.641 216.647 101.23C216.862 101.836 216.869 102.497 216.667 103.108C216.465 103.718 216.066 104.244 215.532 104.603" fill="#59889C"/>
<path d="M211.838 209.659C212.514 212.39 214.975 222.007 211.507 223.549C211.005 223.743 210.477 223.862 209.941 223.903L206.404 224.344C200.134 225.061 193.828 225.417 187.517 225.411C184.555 225.443 180.502 223.899 185.455 222.08C188.878 220.778 192.119 219.041 195.099 216.912C197.724 215.197 200.123 213.16 202.243 210.85C203.582 209.304 202.952 209.219 204.777 208.481C206.987 208.242 209.209 208.116 211.432 208.104C211.568 208.601 211.705 209.122 211.838 209.659Z" fill="#4A6570"/>
<path d="M207.564 103.467C211.753 100.672 220.06 99.2805 224.35 102.818C228.789 106.478 225.894 112.114 224.781 117.681C221.783 132.663 214.615 144.215 209.481 158.047C206.76 165.383 211.267 170.94 212.806 177.823C214.919 187.298 212.103 196.69 212.444 206.12C212.442 207.218 212.23 208.306 211.819 209.325L202.309 209.396C202.107 208.351 202.036 207.284 202.096 206.221C202.183 204.915 202.562 203.65 202.681 202.344C202.863 199.415 202.527 196.477 201.689 193.665C200.152 187.812 198.856 180.883 196.854 174.782C194.654 168.083 192.402 164.482 193.162 157.288C194.362 145.935 198.469 135.246 200.268 124.032C201.476 116.477 200.304 108.312 207.564 103.467Z" fill="#729CAD"/>
<path d="M197.379 112.61C200.291 115.983 204.177 118.37 208.502 119.443C212.852 120.489 217.438 119.813 221.301 117.558C222.762 116.77 223.933 115.538 224.646 114.039C224.983 113.285 225.077 112.445 224.914 111.635C224.751 110.825 224.34 110.086 223.737 109.522C222.657 108.831 221.391 108.491 220.111 108.546L194.245 107.071C194.459 109.242 195.372 111.284 196.847 112.891C198.321 114.499 200.277 115.585 202.421 115.986" fill="#59889C"/>
<path d="M201.373 42.1952C204.939 44.2093 209.32 42.6119 213.314 42.2795C214.042 42.1902 213.22 38.4815 213.094 38.0995C212.018 34.8313 210.911 31.4976 208.837 28.7513C207.186 26.5626 205.837 24.238 203.685 22.4431C203.126 21.9768 196.14 18.2195 196.114 18.7086C196.045 22.7384 196.338 26.7662 196.989 30.7436C197.394 34.0058 197.16 38.3297 199.706 40.9093C200.198 41.414 200.76 41.8468 201.373 42.1952Z" fill="#4D3426"/>
<path d="M202.942 9.62331C206.971 7.83741 212.014 7.61616 215.454 9.22149C222.096 12.32 222.739 18.7264 223.724 25.113C224.189 28.1302 227.426 37.5687 225.084 40.0094C224.436 40.5652 223.646 40.9297 222.802 41.0621L215.773 42.8292C214.129 43.3608 212.394 43.5538 210.674 43.3967C206.655 42.7458 206.408 39.5957 205.019 36.6499C203.39 33.1932 200.708 30.1572 199.036 26.6489C197.281 22.965 195.266 17.8107 197.655 13.9492C198.946 12.0115 200.787 10.5048 202.942 9.62331Z" fill="#4D3426"/>
<path d="M224.412 94.3643C224.412 95.2305 224.436 96.0936 224.481 96.9519C224.764 102.415 229.336 106.714 223.8 111.544C221.098 113.901 217.351 114.675 213.774 114.83C203.385 115.278 187.296 112.132 191.834 99.1942C193.998 92.4855 194.851 85.4233 194.347 78.3924C194.076 74.9962 193.369 71.6397 193.248 68.2346C193.018 61.7488 196.297 58.9499 199.25 53.8154C201.767 49.442 204.644 45.9912 209.759 44.7639C212.596 44.2625 215.476 44.0537 218.354 44.1408C219.588 44.0539 220.824 44.2688 221.956 44.767C223.087 45.2653 224.08 46.0318 224.849 47.0002C227.471 50.0611 226.102 53.2568 225.754 57.1392C224.971 65.8335 224.936 74.5726 224.762 83.2937C224.685 86.9459 224.396 90.6834 224.412 94.3643Z" fill="#48B59D"/>
<path d="M214.174 72.2707C214.709 74.0079 215.529 75.6441 216.6 77.1125L226.834 92.8879C227.103 84.5679 226.63 76.2403 225.42 68.0044C225.261 65.9655 224.637 63.9902 223.594 62.231C218.089 54.2897 213.028 67.6492 214.174 72.2707Z" fill="#398F7C"/>
<path d="M219.494 95.2056C219.12 95.9994 218.744 96.7931 218.339 97.565C216.629 100.764 214.598 103.78 212.277 106.568C208.054 111.72 203.567 116.757 200.993 122.816C200.764 123.354 203.599 122.347 203.748 122.258C204.761 121.645 205.52 119.988 206.184 119.06C205.603 122.973 204.062 126.463 202.72 130.173C202.363 131.165 209.022 128.537 209.804 127.549C211.888 124.915 213.078 120.868 213.953 117.673C214.193 116.462 214.586 115.286 215.122 114.174C216.815 111.16 219.644 108.669 221.997 106.183C224.718 103.312 227.375 100.451 229.889 97.4003C229.294 95.1908 227.996 94.2671 225.766 93.7581C223.536 93.2491 220.462 93.134 219.494 95.2056Z" fill="#A8652D"/>
<path d="M221.885 78.0997C222.271 79.8082 222.765 81.486 223.235 83.1697C223.569 84.1365 223.793 85.138 223.903 86.1551C223.936 87.2881 223.051 88.5432 222.524 89.4917C221.796 90.7816 220.936 91.9573 220.1 93.1757C219.748 93.6787 218.716 94.9338 219.703 95.286C220.674 95.6352 222.066 95.2642 223.038 95.1868C224.725 95.0439 226.681 94.8891 228.159 95.8952C228.408 96.0686 228.644 96.2599 228.864 96.4677C229.162 96.7435 229.702 97.5045 230.18 97.5085C230.558 97.5085 230.788 97.0729 230.966 96.8C231.404 96.1164 231.804 95.411 232.234 94.7165C233.375 92.887 234.622 90.9939 234.95 88.82C235.354 86.1313 234.816 83.1994 234.547 80.5126C234.209 77.1869 233.904 73.8522 233.29 70.5632C232.95 69.1059 232.724 67.6245 232.614 66.1322C232.567 64.6072 232.7 63.0803 232.639 61.5603C232.447 58.9525 231.712 56.4135 230.482 54.1061C229.252 51.7987 227.553 49.7738 225.495 48.1611C224.508 47.5063 223.441 46.9804 222.32 46.5964C221.695 46.321 221.007 46.2208 220.33 46.3067C219.284 46.5627 219.305 47.9934 219.167 48.8417C218.826 50.9342 217.58 52.4522 217.063 54.4067C216.024 57.8987 216.321 61.6519 217.894 64.9376C220.055 69.3031 220.812 73.379 221.885 78.0997Z" fill="#48B59D"/>
<path d="M198.382 35.3611C198.541 36.4104 199.096 37.359 199.933 38.0112C202.215 39.6731 205.994 38.2176 207.062 41.5959C207.291 42.3321 207.756 43.3451 207.979 44.3412C208.21 45.0759 208.142 45.8718 207.79 46.5567C207.608 46.8415 207.268 47.1342 207.346 47.5062C207.425 47.8783 207.868 48.0847 208.185 48.2007C208.856 48.3991 209.561 48.4528 210.254 48.3585C214.322 48.0281 217.409 45.9207 220.975 44.4107C219.934 42.8817 217.834 42.1545 216.784 40.5095C215.044 37.785 214.942 33.7707 215.317 30.6553C215.62 28.1352 217.752 25.999 216.848 23.4988C216.207 21.7268 214.45 22.201 213.604 23.5146C213.158 24.3086 212.769 25.1336 212.441 25.9832C212.196 26.513 211.903 27.1857 211.223 26.9088C208.836 25.9584 209.975 21.3716 208.905 19.3356C207.825 17.5316 206.113 16.1927 204.102 15.5783C202.911 15.1279 200.858 14.3877 199.647 15.1665C198.88 15.6626 198.618 16.754 198.31 17.5567C197.961 18.4744 197.487 19.3426 197.218 20.2861C196.103 24.3153 197.504 31.3647 198.382 35.3611Z" fill="#A8652D"/>
<path d="M209.515 8.96847C211.554 9.78224 213.375 11.0585 214.836 12.6967C216.297 14.3348 217.357 16.29 217.933 18.408C219.024 22.2466 218.536 25.0455 217.692 28.8515C216.94 26.6191 216.189 24.3871 215.437 22.1554C214.466 22.3736 213.142 22.3161 212.838 23.3678C212.588 24.2349 212.999 25.1368 212.614 26.0953C211.251 25.2261 209.392 23.9691 208.878 22.3389C208.509 20.731 208.261 19.0976 208.136 17.4525C208.308 18.6431 207.56 20.0321 207.55 21.2436C206.628 21.1937 205.704 21.2356 204.791 21.3686C200.706 21.6444 201.935 18.662 201.185 16.0903C201.134 16.4871 200.823 20.7991 200.747 20.802L196.019 20.9499C195.674 20.1444 195.507 19.274 195.529 18.3981C195.551 17.5221 195.761 16.6612 196.146 15.874C197.348 12.951 197.901 11.2415 200.68 9.73443C202.01 8.97539 203.488 8.51384 205.013 8.3816C206.539 8.24936 208.075 8.44958 209.515 8.96847Z" fill="#4D3426"/>
<path d="M200.753 38.1709H200.601C201.726 38.9429 203.094 38.9061 204.382 39.2494C204.998 39.3619 205.572 39.6391 206.044 40.0515C206.516 40.4638 206.867 40.9961 207.061 41.5919C207.343 42.4998 207.695 43.4721 208.013 44.3254C208.782 43.6715 208.843 42.3559 209.032 41.4332C209.207 40.5702 209.303 39.6932 209.32 38.8129C209.373 36.2571 207.168 37.28 205.519 37.5568C203.946 37.8718 202.354 38.0771 200.753 38.1709Z" fill="#96431F"/>
<path d="M198.995 27.9655C201.24 27.6559 206.148 28.3366 208.056 28.6273C208.039 28.5841 208.036 28.5371 208.047 28.4921C208.058 28.4472 208.081 28.4065 208.115 28.3753C209.48 27.1301 210.886 25.9246 212.316 24.7558C212.67 24.4651 213.182 24.9632 212.825 25.2648C211.427 26.4462 209.999 27.5921 208.54 28.7027L208.838 28.7513C210.055 31.2773 209.392 34.4711 208.917 36.0864C210.307 35.4669 211.577 34.6071 212.668 33.5464C213.932 32.1376 214.269 30.6175 214.907 28.9199C214.923 28.8664 214.959 28.8206 215.006 28.7905C215.053 28.7605 215.11 28.7482 215.165 28.7558C215.221 28.7634 215.272 28.7904 215.309 28.8321C215.347 28.8738 215.368 28.9274 215.37 28.9835C215.486 32.1445 211.897 36.2481 208.767 36.5765C208.653 36.9208 208.569 37.1262 208.569 37.1262C208.569 37.1262 205.096 41.1941 200.599 38.1759C196.101 35.1577 196.804 29.5083 196.804 29.5083C196.804 29.5083 196.177 28.3554 198.995 27.9655Z" fill="white"/>
<path d="M164.217 76.1908C163.821 75.486 163.328 74.8407 162.752 74.2739L161.066 72.2568C160.795 71.9324 160.34 72.3967 160.604 72.7182L160.765 72.9166C158.512 73.041 156.275 73.3731 154.083 73.9088C154.025 73.927 153.975 73.9652 153.942 74.0166C153.909 74.068 153.896 74.1293 153.904 74.1897C153.912 74.2501 153.942 74.3056 153.987 74.3465C154.032 74.3873 154.09 74.4108 154.151 74.4128C156.519 74.3175 158.871 73.9804 161.17 73.4068L162.27 74.7521C162.717 75.4168 163.258 76.0139 163.874 76.5251C164.109 76.6809 164.303 76.3932 164.217 76.1908Z" fill="#96431F"/>
<path d="M162.096 74.7859C159.844 74.9454 157.608 75.2801 155.408 75.787C155.006 75.8554 155.18 76.4567 155.577 76.3971C157.798 76.1912 159.999 75.8127 162.161 75.2651C162.217 75.248 162.264 75.2117 162.296 75.1627C162.327 75.1138 162.34 75.0552 162.332 74.9977C162.324 74.9401 162.296 74.8871 162.253 74.8484C162.209 74.8096 162.154 74.7874 162.096 74.7859Z" fill="#96431F"/>
<path d="M163.254 76.1005C162.473 76.194 161.709 76.3943 160.983 76.6958L158.479 77.5044C158.091 77.6304 158.253 78.2376 158.649 78.1195L161.169 77.3685C161.939 77.2065 162.683 76.9394 163.381 76.5747C163.429 76.5469 163.467 76.5037 163.489 76.452C163.51 76.4003 163.514 76.3429 163.499 76.2888C163.485 76.2347 163.453 76.1869 163.408 76.1528C163.364 76.1188 163.31 76.1004 163.254 76.1005Z" fill="#96431F"/>
<path d="M207.956 122.672C207.232 122.743 206.329 125.083 204.614 129.774C204.515 130.05 204.944 130.222 205.083 129.972C206.446 127.729 207.559 125.344 208.402 122.859C208.481 122.583 208.223 122.646 207.956 122.672Z" fill="#96431F"/>
<path d="M209.908 123.245C209.223 125.516 208.68 127.48 207.006 129.267C206.95 129.323 206.919 129.399 206.919 129.478C206.919 129.557 206.95 129.633 207.006 129.689C207.062 129.745 207.138 129.776 207.218 129.776C207.297 129.776 207.373 129.744 207.429 129.688C209.051 128.084 210.53 125.675 210.357 123.305C210.357 123.25 210.336 123.197 210.299 123.156C210.263 123.115 210.213 123.089 210.158 123.081C210.104 123.074 210.049 123.087 210.003 123.117C209.957 123.147 209.923 123.192 209.908 123.245Z" fill="#96431F"/>
</svg>
